<svg xmlns="http://www.w3.org/2000/svg" viewBox="0 0 100 125"><path d="M55.877 84.703h-6.5a2.498 2.498 0 0 1-1.768-.733L33.87 70.228a2.5 2.5 0 0 1 0-3.535l16.94-16.942a2.498 2.498 0 0 1 3.527-.009l13.887 13.741-3.517 3.555-12.12-11.993L39.172 68.46l11.241 11.243h4.41l14.741-15.158 3.584 3.486L57.67 83.946a2.5 2.5 0 0 1-1.792.757ZM90.582 44.038 78.68 55.582 76.798 53.7l6.807-6.807-2.12-2.122-6.808 6.808-6.12-6.121 18.568-18.57-2.121-2.12-18.569 18.568-1.21-1.21 22.013-22.584-3.58-3.49-23.736 24.351a2.5 2.5 0 0 0 .022 3.513l16.942 16.942a2.49 2.49 0 0 0 1.767.732 2.49 2.49 0 0 0 1.74-.705l13.67-13.259-3.481-3.588ZM54.066 46.048l2.09-2.15 20.956 20.365-2.09 2.151zM7.678 55.886h29.141v3H7.678zM7.678 80.251h29.141v3H7.678zM7.678 61.977h17.408v3H7.678zM7.678 68.069h12.349v3H7.678zM7.678 74.16h17.408v3H7.678z"/></svg>