<svg xmlns="http://www.w3.org/2000/svg" viewBox="0 0 100 100"><path d="m57.381 47.223-2.105-2.105L50 50.395l-5.276-5.277-2.105 2.105 5.276 5.277-5.276 5.276 2.105 2.105L50 54.605l5.276 5.276 2.105-2.105-5.276-5.276 5.276-5.277z"/><path d="M65.438 79.154H34.562l-4.26-43.679 4.977-.485 3.819 39.164h21.804l3.819-39.164 4.977.485-4.26 43.679zM70.326 31.645 50 31.096l-20.326.549-.134-4.998L50 26.094l20.46.553-.134 4.998zM56.767 24.009l-6.803-.164-6.731.164-.072-2.999 6.803-.164 6.875.164-.072 2.999z"/></svg>